<mxfile host="app.diagrams.net" agent="Mozilla/5.0 (X11; Linux x86_64) AppleWebKit/537.36 (KHTML, like Gecko) Chrome/138.0.0.0 Safari/537.36" version="28.2.5">
  <diagram name="第 1 页" id="G_O1hJXe9JC9Wwc8ELUD">
    <mxGraphModel dx="970" dy="524" grid="1" gridSize="10" guides="1" tooltips="1" connect="1" arrows="1" fold="1" page="1" pageScale="1" pageWidth="2339" pageHeight="3300" math="0" shadow="0">
      <root>
        <mxCell id="0" />
        <mxCell id="1" parent="0" />
        <mxCell id="rSIq-TXOGQutWpHFiMge-1" value="Pool" style="swimlane;childLayout=stackLayout;resizeParent=1;resizeParentMax=0;startSize=20;html=1;" parent="1" vertex="1">
          <mxGeometry x="220.00000000000045" y="320" width="400" height="690" as="geometry">
            <mxRectangle x="220.00000000000045" y="320" width="60" height="30" as="alternateBounds" />
          </mxGeometry>
        </mxCell>
        <mxCell id="rSIq-TXOGQutWpHFiMge-2" value="System A" style="swimlane;startSize=20;html=1;" parent="rSIq-TXOGQutWpHFiMge-1" vertex="1">
          <mxGeometry y="20" width="200" height="670" as="geometry" />
        </mxCell>
        <mxCell id="j45-h5pcbJH62HqH3jBe-4" style="edgeStyle=orthogonalEdgeStyle;rounded=0;orthogonalLoop=1;jettySize=auto;html=1;exitX=0.5;exitY=1;exitDx=0;exitDy=0;entryX=0.5;entryY=0;entryDx=0;entryDy=0;" edge="1" parent="rSIq-TXOGQutWpHFiMge-2" source="rSIq-TXOGQutWpHFiMge-5" target="rSIq-TXOGQutWpHFiMge-8">
          <mxGeometry relative="1" as="geometry" />
        </mxCell>
        <mxCell id="rSIq-TXOGQutWpHFiMge-5" value="boot from core 0" style="rounded=1;whiteSpace=wrap;html=1;fillColor=none;" parent="rSIq-TXOGQutWpHFiMge-2" vertex="1">
          <mxGeometry x="25" y="40" width="150" height="50" as="geometry" />
        </mxCell>
        <mxCell id="j45-h5pcbJH62HqH3jBe-5" style="edgeStyle=orthogonalEdgeStyle;rounded=0;orthogonalLoop=1;jettySize=auto;html=1;exitX=0.5;exitY=1;exitDx=0;exitDy=0;entryX=0.5;entryY=0;entryDx=0;entryDy=0;" edge="1" parent="rSIq-TXOGQutWpHFiMge-2" source="rSIq-TXOGQutWpHFiMge-8" target="rSIq-TXOGQutWpHFiMge-9">
          <mxGeometry relative="1" as="geometry" />
        </mxCell>
        <mxCell id="rSIq-TXOGQutWpHFiMge-8" value="..." style="rounded=1;whiteSpace=wrap;html=1;fillColor=none;" parent="rSIq-TXOGQutWpHFiMge-2" vertex="1">
          <mxGeometry x="24.999999999999545" y="110" width="150" height="50" as="geometry" />
        </mxCell>
        <mxCell id="j45-h5pcbJH62HqH3jBe-6" style="edgeStyle=orthogonalEdgeStyle;rounded=0;orthogonalLoop=1;jettySize=auto;html=1;exitX=0.5;exitY=1;exitDx=0;exitDy=0;entryX=0.5;entryY=0;entryDx=0;entryDy=0;" edge="1" parent="rSIq-TXOGQutWpHFiMge-2" source="rSIq-TXOGQutWpHFiMge-9" target="rSIq-TXOGQutWpHFiMge-11">
          <mxGeometry relative="1" as="geometry" />
        </mxCell>
        <mxCell id="rSIq-TXOGQutWpHFiMge-9" value="opensbi" style="rounded=1;whiteSpace=wrap;html=1;fillColor=none;" parent="rSIq-TXOGQutWpHFiMge-2" vertex="1">
          <mxGeometry x="24.999999999999545" y="180" width="150" height="50" as="geometry" />
        </mxCell>
        <mxCell id="rSIq-TXOGQutWpHFiMge-17" style="edgeStyle=orthogonalEdgeStyle;rounded=0;orthogonalLoop=1;jettySize=auto;html=1;exitX=0.5;exitY=1;exitDx=0;exitDy=0;entryX=0.5;entryY=0;entryDx=0;entryDy=0;" parent="rSIq-TXOGQutWpHFiMge-2" source="rSIq-TXOGQutWpHFiMge-11" target="rSIq-TXOGQutWpHFiMge-13" edge="1">
          <mxGeometry relative="1" as="geometry" />
        </mxCell>
        <mxCell id="rSIq-TXOGQutWpHFiMge-11" value="jump to uboot &amp;amp;&amp;amp; open core 4" style="rounded=1;whiteSpace=wrap;html=1;fillColor=none;" parent="rSIq-TXOGQutWpHFiMge-2" vertex="1">
          <mxGeometry x="24.999999999999545" y="250" width="150" height="50" as="geometry" />
        </mxCell>
        <mxCell id="j45-h5pcbJH62HqH3jBe-7" style="edgeStyle=orthogonalEdgeStyle;rounded=0;orthogonalLoop=1;jettySize=auto;html=1;exitX=0.5;exitY=1;exitDx=0;exitDy=0;entryX=0.5;entryY=0;entryDx=0;entryDy=0;" edge="1" parent="rSIq-TXOGQutWpHFiMge-2" source="rSIq-TXOGQutWpHFiMge-13" target="rSIq-TXOGQutWpHFiMge-19">
          <mxGeometry relative="1" as="geometry" />
        </mxCell>
        <mxCell id="rSIq-TXOGQutWpHFiMge-13" value="load A image, B image, A dtb and B dtb" style="rounded=1;whiteSpace=wrap;html=1;fillColor=none;" parent="rSIq-TXOGQutWpHFiMge-2" vertex="1">
          <mxGeometry x="24.999999999999545" y="320" width="150" height="50" as="geometry" />
        </mxCell>
        <mxCell id="j45-h5pcbJH62HqH3jBe-1" style="edgeStyle=orthogonalEdgeStyle;rounded=0;orthogonalLoop=1;jettySize=auto;html=1;exitX=0.5;exitY=1;exitDx=0;exitDy=0;entryX=0.5;entryY=0;entryDx=0;entryDy=0;" edge="1" parent="rSIq-TXOGQutWpHFiMge-2" source="rSIq-TXOGQutWpHFiMge-19" target="rSIq-TXOGQutWpHFiMge-23">
          <mxGeometry relative="1" as="geometry" />
        </mxCell>
        <mxCell id="rSIq-TXOGQutWpHFiMge-19" value="send a signal" style="rounded=1;whiteSpace=wrap;html=1;fillColor=none;" parent="rSIq-TXOGQutWpHFiMge-2" vertex="1">
          <mxGeometry x="24.999999999999545" y="390" width="150" height="50" as="geometry" />
        </mxCell>
        <mxCell id="rSIq-TXOGQutWpHFiMge-26" value="" style="edgeStyle=orthogonalEdgeStyle;rounded=0;orthogonalLoop=1;jettySize=auto;html=1;" parent="rSIq-TXOGQutWpHFiMge-2" source="rSIq-TXOGQutWpHFiMge-23" target="rSIq-TXOGQutWpHFiMge-24" edge="1">
          <mxGeometry relative="1" as="geometry" />
        </mxCell>
        <mxCell id="rSIq-TXOGQutWpHFiMge-23" value="boot Linux A" style="rounded=1;whiteSpace=wrap;html=1;fillColor=none;" parent="rSIq-TXOGQutWpHFiMge-2" vertex="1">
          <mxGeometry x="24.999999999999545" y="460" width="150" height="50" as="geometry" />
        </mxCell>
        <mxCell id="rSIq-TXOGQutWpHFiMge-24" value="sdcard as rootfs" style="rounded=1;whiteSpace=wrap;html=1;fillColor=none;" parent="rSIq-TXOGQutWpHFiMge-2" vertex="1">
          <mxGeometry x="24.999999999999545" y="530" width="150" height="50" as="geometry" />
        </mxCell>
        <mxCell id="rSIq-TXOGQutWpHFiMge-3" value="System B" style="swimlane;startSize=20;html=1;" parent="rSIq-TXOGQutWpHFiMge-1" vertex="1">
          <mxGeometry x="200" y="20" width="200" height="670" as="geometry" />
        </mxCell>
        <mxCell id="rSIq-TXOGQutWpHFiMge-18" style="edgeStyle=orthogonalEdgeStyle;rounded=0;orthogonalLoop=1;jettySize=auto;html=1;exitX=0.5;exitY=1;exitDx=0;exitDy=0;entryX=0.5;entryY=0;entryDx=0;entryDy=0;" parent="rSIq-TXOGQutWpHFiMge-3" source="rSIq-TXOGQutWpHFiMge-7" target="rSIq-TXOGQutWpHFiMge-12" edge="1">
          <mxGeometry relative="1" as="geometry" />
        </mxCell>
        <mxCell id="rSIq-TXOGQutWpHFiMge-7" value="core 4 is disabled" style="rounded=1;whiteSpace=wrap;html=1;fillColor=none;" parent="rSIq-TXOGQutWpHFiMge-3" vertex="1">
          <mxGeometry x="24.999999999999545" y="40" width="150" height="50" as="geometry" />
        </mxCell>
        <mxCell id="rSIq-TXOGQutWpHFiMge-12" value="wait uboot to load image and dtb" style="rounded=1;whiteSpace=wrap;html=1;fillColor=none;" parent="rSIq-TXOGQutWpHFiMge-3" vertex="1">
          <mxGeometry x="24.999999999999545" y="250" width="150" height="50" as="geometry" />
        </mxCell>
        <mxCell id="rSIq-TXOGQutWpHFiMge-28" value="" style="edgeStyle=orthogonalEdgeStyle;rounded=0;orthogonalLoop=1;jettySize=auto;html=1;" parent="rSIq-TXOGQutWpHFiMge-3" source="rSIq-TXOGQutWpHFiMge-20" target="rSIq-TXOGQutWpHFiMge-25" edge="1">
          <mxGeometry relative="1" as="geometry" />
        </mxCell>
        <mxCell id="rSIq-TXOGQutWpHFiMge-20" value="boot Linux B" style="rounded=1;whiteSpace=wrap;html=1;fillColor=none;" parent="rSIq-TXOGQutWpHFiMge-3" vertex="1">
          <mxGeometry x="19.999999999999545" y="390" width="150" height="50" as="geometry" />
        </mxCell>
        <mxCell id="rSIq-TXOGQutWpHFiMge-25" value="emmc as rootfs" style="rounded=1;whiteSpace=wrap;html=1;fillColor=none;" parent="rSIq-TXOGQutWpHFiMge-3" vertex="1">
          <mxGeometry x="19.999999999999545" y="460" width="150" height="50" as="geometry" />
        </mxCell>
        <mxCell id="j45-h5pcbJH62HqH3jBe-3" style="edgeStyle=orthogonalEdgeStyle;rounded=0;orthogonalLoop=1;jettySize=auto;html=1;exitX=0.5;exitY=1;exitDx=0;exitDy=0;entryX=0.534;entryY=-0.014;entryDx=0;entryDy=0;entryPerimeter=0;" edge="1" parent="rSIq-TXOGQutWpHFiMge-3" source="rSIq-TXOGQutWpHFiMge-12" target="rSIq-TXOGQutWpHFiMge-20">
          <mxGeometry relative="1" as="geometry" />
        </mxCell>
        <mxCell id="rSIq-TXOGQutWpHFiMge-16" style="edgeStyle=orthogonalEdgeStyle;rounded=0;orthogonalLoop=1;jettySize=auto;html=1;exitX=1;exitY=0.5;exitDx=0;exitDy=0;entryX=0;entryY=0.5;entryDx=0;entryDy=0;" parent="rSIq-TXOGQutWpHFiMge-1" source="rSIq-TXOGQutWpHFiMge-11" target="rSIq-TXOGQutWpHFiMge-12" edge="1">
          <mxGeometry relative="1" as="geometry" />
        </mxCell>
        <mxCell id="rSIq-TXOGQutWpHFiMge-22" style="edgeStyle=orthogonalEdgeStyle;rounded=0;orthogonalLoop=1;jettySize=auto;html=1;exitX=1;exitY=0.5;exitDx=0;exitDy=0;entryX=0;entryY=0.5;entryDx=0;entryDy=0;" parent="rSIq-TXOGQutWpHFiMge-1" source="rSIq-TXOGQutWpHFiMge-19" target="rSIq-TXOGQutWpHFiMge-20" edge="1">
          <mxGeometry relative="1" as="geometry" />
        </mxCell>
      </root>
    </mxGraphModel>
  </diagram>
</mxfile>
